# xmcd
#
# Track frame offsets:
#	150
#	8357
#	17466
#	26866
#	35717
#	43566
#	52341
#	60636
#	68409
#	77875
#	85945
#	93845
#	99942
#	106993
#	116543
#	124093
#	134139
#	142129
#	151437
#	159532
#	168127
#	179220
#	189497
#	196666
#	206524
#	216914
#	224238
#	233388
#	241020
#	249018
#	257608
#	268396
#	275670
#	283650
#	291867
#	299621
#	309636
#	316967
#	323493
#	331580
#
# Disc length: 4509 seconds
#
# Revision: 1
# Processed by: cddbd v1.5.2PL0 Copyright (c) Steve Scherf et al.
# Submitted via: audiograbber 1.83.01
#
DISCID=4b119b28
DTITLE=Ed Freidland - Blues Jam
DYEAR=2007
DGENRE=Play along
TTITLE0=Uptown Down
TTITLE1=Howlin' Wolf
TTITLE2=Jimmy Reed
TTITLE3=Tramp
TTITLE4=8-Bar Shuffle
TTITLE5=Slow T-Bone
TTITLE6=Straight 8ths
TTITLE7=Jump Blues
TTITLE8=March Shuffle
TTITLE9=Texas Shuffle
TTITLE10=Flat Tire
TTITLE11=Funky
TTITLE12=Texas Rock
TTITLE13=Slow Blues
TTITLE14=Fast Boogaloo
TTITLE15=March Shuffle #2
TTITLE16=New Orleans Rhumba
TTITLE17=Fast Funky
TTITLE18=16-Bar Gospel 2-Beat
TTITLE19=Fast Country 2-Beat
TTITLE20=8-Bar Shuffle W/Bridge
TTITLE21=Jimmy Reed #2
TTITLE22=Funky Half-time Feel
TTITLE23=Jazz Swing
TTITLE24=March Shuffle #3
TTITLE25=Fast Straight 8Ths
TTITLE26=New Orleans Funk
TTITLE27=Afro-6/8 Feel
TTITLE28=Funky Bo Diddley
TTITLE29=Texas Shuffle #2
TTITLE30=Ballad Blues
TTITLE31=Twist
TTITLE32=Hoochie Coochie
TTITLE33=Uptown Up
TTITLE34=Fast Flat Tire
TTITLE35=Tramp #2
TTITLE36=Jump Blues #2
TTITLE37=8-Bar Dixieland
TTITLE38=Fast Jazz Swing
TTITLE39=Fast Boogie Woogie
EXTD=Play-along CD for the book:\nBlues Jam - 40 Progressions and Grooves\nBy: 
EXTD=Ed Freidland\nPublished by: Hal Leonard
EXTT0=
EXTT1=
EXTT2=
EXTT3=
EXTT4=
EXTT5=
EXTT6=
EXTT7=
EXTT8=
EXTT9=
EXTT10=
EXTT11=
EXTT12=
EXTT13=
EXTT14=
EXTT15=
EXTT16=
EXTT17=
EXTT18=
EXTT19=
EXTT20=
EXTT21=
EXTT22=
EXTT23=
EXTT24=
EXTT25=
EXTT26=
EXTT27=
EXTT28=
EXTT29=
EXTT30=
EXTT31=
EXTT32=
EXTT33=
EXTT34=
EXTT35=
EXTT36=
EXTT37=
EXTT38=
EXTT39=
PLAYORDER=
